<svg width="33" height="30" viewBox="0 0 33 30" fill="none" xmlns="http://www.w3.org/2000/svg">
<path d="M32.7514 13.4805C32.7514 20.9263 30.7601 29.5476 22.6758 29.5476C14.5916 29.5476 0.753906 21.0226 0.753906 13.5768C0.753906 6.13095 10.0314 0 18.1156 0C26.1999 0 32.7539 6.03468 32.7539 13.4805H32.7514Z" fill="#FCC10F"/>
<path d="M15.7724 18.7398C15.5697 18.7398 15.4076 18.5397 15.4076 18.294V15.2234H6.73812V18.294C6.73812 18.5397 6.57344 18.7398 6.3733 18.7398C6.17316 18.7398 6.00342 18.5397 6.00342 18.294V11.2586C6.00342 11.0103 6.17063 10.8076 6.3733 10.8076C6.57598 10.8076 6.73812 11.0103 6.73812 11.2586V14.324H15.4076V11.2586C15.4076 11.0103 15.5723 10.8076 15.7724 10.8076C15.9725 10.8076 16.1423 11.0103 16.1423 11.2586V18.294C16.1423 18.5397 15.9751 18.7398 15.7724 18.7398Z" fill="black"/>
<path d="M15.7726 10.8656C15.9423 10.8656 16.0842 11.0404 16.0842 11.2582V18.2936C16.0842 18.5064 15.9423 18.6813 15.7726 18.6813C15.6028 18.6813 15.466 18.5064 15.466 18.2936V15.1648H6.68001V18.2936C6.68001 18.5064 6.54321 18.6813 6.37347 18.6813C6.20372 18.6813 6.06185 18.5064 6.06185 18.2936V11.2582C6.06185 11.0404 6.20372 10.8656 6.37347 10.8656C6.54321 10.8656 6.68001 11.0404 6.68001 11.2582V14.382H15.466V11.2582C15.466 11.0404 15.6028 10.8656 15.7726 10.8656ZM15.7726 10.749C15.5344 10.749 15.3495 10.972 15.3495 11.2582V14.2655H6.79655V11.2582C6.79655 10.972 6.60908 10.749 6.37347 10.749C6.13785 10.749 5.94531 10.977 5.94531 11.2582V18.2936C5.94531 18.5723 6.13785 18.7978 6.37347 18.7978C6.60908 18.7978 6.79655 18.5723 6.79655 18.2936V15.2814H15.3495V18.2936C15.3495 18.5723 15.5395 18.7978 15.7726 18.7978C16.0056 18.7978 16.2007 18.5723 16.2007 18.2936V11.2582C16.2007 10.977 16.0082 10.749 15.7726 10.749Z" fill="black"/>
<path d="M21.5284 18.7399C20.6239 18.7399 19.8639 18.4537 19.3319 17.914C18.7973 17.3643 18.5161 16.584 18.5161 15.6567C18.5161 15.4085 18.6808 15.2058 18.8809 15.2058C19.0811 15.2058 19.2508 15.4085 19.2508 15.6567C19.2508 16.3205 19.4383 16.8475 19.8082 17.2249C20.1983 17.6278 20.7912 17.8406 21.5284 17.8406H24.4925C25.2222 17.8406 25.8175 17.6278 26.2127 17.2224C26.5826 16.8399 26.7701 16.3129 26.7701 15.6542V11.2561C26.7701 11.0079 26.9373 10.8052 27.14 10.8052C27.3427 10.8052 27.5048 11.0079 27.5048 11.2561V15.6542C27.5048 16.5764 27.2236 17.3567 26.689 17.909C26.157 18.4511 25.3995 18.7349 24.4925 18.7349H21.5284V18.7399Z" fill="black"/>
<path d="M27.14 10.8656C27.3097 10.8656 27.4465 11.0404 27.4465 11.2582V15.6563C27.4465 16.5658 27.1678 17.3309 26.6459 17.8706C26.124 18.4 25.3817 18.6813 24.4925 18.6813H21.5284C20.6391 18.6813 19.8943 18.4026 19.3749 17.8706C18.8505 17.3309 18.5744 16.5633 18.5744 15.6563C18.5744 15.4384 18.7112 15.2636 18.8809 15.2636C19.0507 15.2636 19.1925 15.4384 19.1925 15.6563C19.1925 16.3327 19.3825 16.8724 19.7651 17.2651C20.1679 17.6805 20.7785 17.8984 21.5258 17.8984H24.49C25.2323 17.8984 25.8428 17.6805 26.2507 17.2651C26.6307 16.8724 26.8233 16.3327 26.8233 15.6563V11.2582C26.8233 11.0404 26.9651 10.8656 27.1349 10.8656M27.14 10.749C26.9043 10.749 26.7118 10.977 26.7118 11.2582V15.6563C26.7118 16.2998 26.5294 16.8141 26.1722 17.184C25.7896 17.5767 25.2095 17.7819 24.495 17.7819H21.5309C20.8114 17.7819 20.2312 17.5741 19.8538 17.184C19.494 16.8166 19.3141 16.3023 19.3141 15.6563C19.3141 15.3751 19.1216 15.1471 18.886 15.1471C18.6504 15.1471 18.4629 15.37 18.4629 15.6563C18.4629 16.5988 18.7517 17.3943 19.2964 17.9542C19.8386 18.5064 20.6138 18.7978 21.5334 18.7978H24.4976C25.4197 18.7978 26.1924 18.5064 26.7346 17.9542C27.2793 17.3892 27.5681 16.5937 27.5681 15.6563V11.2582C27.5681 10.972 27.3806 10.749 27.145 10.749H27.14Z" fill="black"/>
</svg>
