<svg width="136" height="160" viewBox="0 0 136 160" fill="none" xmlns="http://www.w3.org/2000/svg">
<path d="M128.332 104.77C80.7151 109.53 76.7724 113.389 71.9089 160C67.0455 113.389 63.1028 109.53 15.4856 104.77C63.1028 100.009 67.0455 96.1495 71.9089 49.5386C76.7724 96.1495 80.7151 100.009 128.332 104.77Z" fill="#110D01"/>
<path d="M135.056 37.8344C102.437 41.0956 99.7361 43.7394 96.4045 75.6687C93.0728 43.7394 90.3719 41.0953 57.7531 37.8344C90.3723 34.5734 93.0731 31.9294 96.4045 0C99.7365 31.9294 102.437 34.5734 135.056 37.8344Z" fill="#110D01"/>
<path d="M62.7955 56.4367C36.2982 59.0864 34.1044 61.2336 31.3978 87.1708C28.6912 61.2336 26.497 59.0864 0 56.4367C26.497 53.7876 28.6912 51.6398 31.3978 25.7026C34.1044 51.6398 36.2982 53.7876 62.7955 56.4367Z" fill="#110D01"/>
</svg>
