<svg width="82" height="75" viewBox="0 0 82 75" fill="none" xmlns="http://www.w3.org/2000/svg">
<path d="M81.2174 34.2172C81.2174 53.1167 76.163 75 55.6429 75C35.1229 75 -0.000976562 53.3611 -0.000976562 34.4615C-0.000976562 15.562 23.5479 0 44.0679 0C64.5879 0 81.2238 15.3177 81.2238 34.2172H81.2174Z" fill="white"/>
<path d="M38.1199 47.567C37.6054 47.567 37.1938 47.059 37.1938 46.4352V38.6414H15.1884V46.4352C15.1884 47.059 14.7704 47.567 14.2624 47.567C13.7543 47.567 13.3235 47.059 13.3235 46.4352V28.5775C13.3235 27.9473 13.7479 27.4328 14.2624 27.4328C14.7768 27.4328 15.1884 27.9473 15.1884 28.5775V36.3585H37.1938V28.5775C37.1938 27.9473 37.6118 27.4328 38.1199 27.4328C38.6279 27.4328 39.0587 27.9473 39.0587 28.5775V46.4352C39.0587 47.059 38.6343 47.567 38.1199 47.567Z" fill="black"/>
<path d="M38.1198 27.5806C38.5507 27.5806 38.9108 28.0243 38.9108 28.5774V46.4351C38.9108 46.9753 38.5507 47.419 38.1198 47.419C37.689 47.419 37.3417 46.9753 37.3417 46.4351V38.4933H15.0404V46.4351C15.0404 46.9753 14.6932 47.419 14.2623 47.419C13.8315 47.419 13.4713 46.9753 13.4713 46.4351V28.5774C13.4713 28.0243 13.8315 27.5806 14.2623 27.5806C14.6932 27.5806 15.0404 28.0243 15.0404 28.5774V36.5063H37.3417V28.5774C37.3417 28.0243 37.689 27.5806 38.1198 27.5806ZM38.1198 27.2848C37.5153 27.2848 37.0459 27.8507 37.0459 28.5774V36.2105H15.3362V28.5774C15.3362 27.8507 14.8604 27.2848 14.2623 27.2848C13.6643 27.2848 13.1755 27.8636 13.1755 28.5774V46.4351C13.1755 47.1425 13.6643 47.7148 14.2623 47.7148C14.8604 47.7148 15.3362 47.1425 15.3362 46.4351V38.7891H37.0459V46.4351C37.0459 47.1425 37.5282 47.7148 38.1198 47.7148C38.7114 47.7148 39.2066 47.1425 39.2066 46.4351V28.5774C39.2066 27.8636 38.7179 27.2848 38.1198 27.2848Z" fill="black"/>
<path d="M52.7304 47.5673C50.4347 47.5673 48.5055 46.8406 47.1551 45.4709C45.7983 44.0755 45.0845 42.0949 45.0845 39.7413C45.0845 39.1111 45.5025 38.5966 46.0105 38.5966C46.5185 38.5966 46.9493 39.1111 46.9493 39.7413C46.9493 41.4261 47.4252 42.7636 48.3641 43.7218C49.3544 44.7443 50.8591 45.2844 52.7304 45.2844H60.2542C62.1062 45.2844 63.6174 44.7443 64.6206 43.7154C65.5595 42.7444 66.0353 41.4068 66.0353 39.7348V28.5713C66.0353 27.9411 66.4598 27.4267 66.9742 27.4267C67.4887 27.4267 67.9002 27.9411 67.9002 28.5713V39.7348C67.9002 42.0756 67.1864 44.0562 65.8296 45.4581C64.4791 46.8342 62.5564 47.5544 60.2542 47.5544H52.7304V47.5673Z" fill="black"/>
<path d="M66.9742 27.5807C67.4051 27.5807 67.7523 28.0245 67.7523 28.5775V39.741C67.7523 42.0496 67.045 43.9916 65.7203 45.3613C64.3956 46.7053 62.5114 47.4191 60.2543 47.4191H52.7305C50.4733 47.4191 48.5827 46.7118 47.2645 45.3613C45.9333 43.9916 45.2324 42.0432 45.2324 39.741C45.2324 39.188 45.5797 38.7443 46.0105 38.7443C46.4414 38.7443 46.8015 39.188 46.8015 39.741C46.8015 41.458 47.2838 42.8277 48.2548 43.8244C49.2773 44.879 50.827 45.4321 52.724 45.4321H60.2478C62.132 45.4321 63.6818 44.879 64.7171 43.8244C65.6817 42.8277 66.1704 41.458 66.1704 39.741V28.5775C66.1704 28.0245 66.5305 27.5807 66.9614 27.5807M66.9742 27.2849C66.3762 27.2849 65.8875 27.8637 65.8875 28.5775V39.741C65.8875 41.3744 65.4245 42.6798 64.5178 43.6186C63.5467 44.6154 62.0741 45.1363 60.2607 45.1363H52.7369C50.9106 45.1363 49.438 44.609 48.4799 43.6186C47.5667 42.6862 47.1101 41.3808 47.1101 39.741C47.1101 39.0272 46.6214 38.4485 46.0234 38.4485C45.4253 38.4485 44.9495 39.0143 44.9495 39.741C44.9495 42.1332 45.6826 44.1524 47.0651 45.5735C48.4413 46.9754 50.409 47.7149 52.7433 47.7149H60.2671C62.6079 47.7149 64.5692 46.9754 65.9454 45.5735C67.3279 44.1395 68.061 42.1203 68.061 39.741V28.5775C68.061 27.8508 67.5851 27.2849 66.9871 27.2849H66.9742Z" fill="black"/>
</svg>
